<svg id="visual" viewBox="0 0 1360 150" width="1360" height="150" xmlns="http://www.w3.org/2000/svg" xmlns:xlink="http://www.w3.org/1999/xlink" version="1.1"><path d="M0 18L20.7 20C41.3 22 82.7 26 123.8 26C165 26 206 22 247.2 22.2C288.3 22.3 329.7 26.7 371 27.7C412.3 28.7 453.7 26.3 494.8 24.3C536 22.3 577 20.7 618.2 21.3C659.3 22 700.7 25 741.8 24.5C783 24 824 20 865.2 18C906.3 16 947.7 16 989 18.5C1030.3 21 1071.7 26 1112.8 25.3C1154 24.7 1195 18.3 1236.2 15.3C1277.3 12.3 1318.7 12.7 1339.3 12.8L1360 13L1360 0L1339.3 0C1318.7 0 1277.3 0 1236.2 0C1195 0 1154 0 1112.8 0C1071.7 0 1030.3 0 989 0C947.7 0 906.3 0 865.2 0C824 0 783 0 741.8 0C700.7 0 659.3 0 618.2 0C577 0 536 0 494.8 0C453.7 0 412.3 0 371 0C329.7 0 288.3 0 247.2 0C206 0 165 0 123.8 0C82.7 0 41.3 0 20.7 0L0 0Z" fill="#002398"></path><path d="M0 30L20.7 33.2C41.3 36.3 82.7 42.7 123.8 42.8C165 43 206 37 247.2 37.8C288.3 38.7 329.7 46.3 371 47.2C412.3 48 453.7 42 494.8 40C536 38 577 40 618.2 42C659.3 44 700.7 46 741.8 44.7C783 43.3 824 38.7 865.2 36.2C906.3 33.7 947.7 33.3 989 36.8C1030.3 40.3 1071.7 47.7 1112.8 47.2C1154 46.7 1195 38.3 1236.2 35.7C1277.3 33 1318.7 36 1339.3 37.5L1360 39L1360 11L1339.3 10.8C1318.7 10.7 1277.3 10.3 1236.2 13.3C1195 16.3 1154 22.7 1112.8 23.3C1071.7 24 1030.3 19 989 16.5C947.7 14 906.3 14 865.2 16C824 18 783 22 741.8 22.5C700.7 23 659.3 20 618.2 19.3C577 18.7 536 20.3 494.8 22.3C453.7 24.3 412.3 26.7 371 25.7C329.7 24.7 288.3 20.3 247.2 20.2C206 20 165 24 123.8 24C82.7 24 41.3 20 20.7 18L0 16Z" fill="#97008a"></path><path d="M0 58L20.7 58.5C41.3 59 82.7 60 123.8 62.8C165 65.7 206 70.3 247.2 71.8C288.3 73.3 329.7 71.7 371 70.3C412.3 69 453.7 68 494.8 66.5C536 65 577 63 618.2 64.8C659.3 66.7 700.7 72.3 741.8 70.2C783 68 824 58 865.2 55.7C906.3 53.3 947.7 58.7 989 65C1030.3 71.3 1071.7 78.7 1112.8 80.2C1154 81.7 1195 77.3 1236.2 74.7C1277.3 72 1318.7 71 1339.3 70.5L1360 70L1360 37L1339.3 35.5C1318.7 34 1277.3 31 1236.2 33.7C1195 36.3 1154 44.7 1112.8 45.2C1071.7 45.7 1030.3 38.3 989 34.8C947.7 31.3 906.3 31.7 865.2 34.2C824 36.7 783 41.3 741.8 42.7C700.7 44 659.3 42 618.2 40C577 38 536 36 494.8 38C453.7 40 412.3 46 371 45.2C329.7 44.3 288.3 36.7 247.2 35.8C206 35 165 41 123.8 40.8C82.7 40.7 41.3 34.3 20.7 31.2L0 28Z" fill="#d8006b"></path><path d="M0 106L20.7 106.5C41.3 107 82.7 108 123.8 111.8C165 115.7 206 122.3 247.2 125.2C288.3 128 329.7 127 371 124.2C412.3 121.3 453.7 116.7 494.8 111.3C536 106 577 100 618.2 99C659.3 98 700.7 102 741.8 106.5C783 111 824 116 865.2 116.8C906.3 117.7 947.7 114.3 989 116.3C1030.3 118.3 1071.7 125.7 1112.8 126.2C1154 126.7 1195 120.3 1236.2 119.3C1277.3 118.3 1318.7 122.7 1339.3 124.8L1360 127L1360 68L1339.3 68.5C1318.7 69 1277.3 70 1236.2 72.7C1195 75.3 1154 79.7 1112.8 78.2C1071.7 76.7 1030.3 69.3 989 63C947.7 56.7 906.3 51.3 865.2 53.7C824 56 783 66 741.8 68.2C700.7 70.3 659.3 64.7 618.2 62.8C577 61 536 63 494.8 64.5C453.7 66 412.3 67 371 68.3C329.7 69.7 288.3 71.3 247.2 69.8C206 68.3 165 63.7 123.8 60.8C82.7 58 41.3 57 20.7 56.5L0 56Z" fill="#f94946"></path><path d="M0 151L20.7 151C41.3 151 82.7 151 123.8 151C165 151 206 151 247.2 151C288.3 151 329.7 151 371 151C412.3 151 453.7 151 494.8 151C536 151 577 151 618.2 151C659.3 151 700.7 151 741.8 151C783 151 824 151 865.2 151C906.3 151 947.7 151 989 151C1030.3 151 1071.7 151 1112.8 151C1154 151 1195 151 1236.2 151C1277.3 151 1318.7 151 1339.3 151L1360 151L1360 125L1339.3 122.8C1318.7 120.7 1277.3 116.3 1236.2 117.3C1195 118.3 1154 124.7 1112.8 124.2C1071.7 123.7 1030.3 116.3 989 114.3C947.7 112.3 906.3 115.7 865.2 114.8C824 114 783 109 741.8 104.5C700.7 100 659.3 96 618.2 97C577 98 536 104 494.8 109.3C453.7 114.7 412.3 119.3 371 122.2C329.7 125 288.3 126 247.2 123.2C206 120.3 165 113.7 123.8 109.8C82.7 106 41.3 105 20.7 104.5L0 104Z" fill="#fe8716"></path></svg>