<svg id="visual" viewBox="0 0 1360 150" width="1360" height="150" xmlns="http://www.w3.org/2000/svg" xmlns:xlink="http://www.w3.org/1999/xlink" version="1.1"><path d="M0 30L20.7 32.5C41.3 35 82.7 40 123.8 38.7C165 37.3 206 29.7 247.2 30.2C288.3 30.7 329.7 39.3 371 39.3C412.3 39.3 453.7 30.7 494.8 29.3C536 28 577 34 618.2 36.5C659.3 39 700.7 38 741.8 39.8C783 41.7 824 46.3 865.2 44.2C906.3 42 947.7 33 989 30.7C1030.3 28.3 1071.7 32.7 1112.8 33.2C1154 33.7 1195 30.3 1236.2 27.8C1277.3 25.3 1318.7 23.7 1339.3 22.8L1360 22L1360 0L1339.3 0C1318.7 0 1277.3 0 1236.2 0C1195 0 1154 0 1112.8 0C1071.7 0 1030.3 0 989 0C947.7 0 906.3 0 865.2 0C824 0 783 0 741.8 0C700.7 0 659.3 0 618.2 0C577 0 536 0 494.8 0C453.7 0 412.3 0 371 0C329.7 0 288.3 0 247.2 0C206 0 165 0 123.8 0C82.7 0 41.3 0 20.7 0L0 0Z" fill="#4234d0"></path><path d="M0 51L20.7 54.5C41.3 58 82.7 65 123.8 64.7C165 64.3 206 56.7 247.2 56.8C288.3 57 329.7 65 371 64C412.3 63 453.7 53 494.8 52C536 51 577 59 618.2 60.8C659.3 62.7 700.7 58.3 741.8 57.8C783 57.3 824 60.7 865.2 60.7C906.3 60.7 947.7 57.3 989 54.8C1030.3 52.3 1071.7 50.7 1112.8 48.8C1154 47 1195 45 1236.2 44.5C1277.3 44 1318.7 45 1339.3 45.5L1360 46L1360 20L1339.3 20.8C1318.7 21.7 1277.3 23.3 1236.2 25.8C1195 28.3 1154 31.7 1112.8 31.2C1071.7 30.7 1030.3 26.3 989 28.7C947.7 31 906.3 40 865.2 42.2C824 44.3 783 39.7 741.8 37.8C700.7 36 659.3 37 618.2 34.5C577 32 536 26 494.8 27.3C453.7 28.7 412.3 37.3 371 37.3C329.7 37.3 288.3 28.7 247.2 28.2C206 27.7 165 35.3 123.8 36.7C82.7 38 41.3 33 20.7 30.5L0 28Z" fill="#0061e7"></path><path d="M0 64L20.7 67.3C41.3 70.7 82.7 77.3 123.8 76.3C165 75.3 206 66.7 247.2 66.3C288.3 66 329.7 74 371 72.5C412.3 71 453.7 60 494.8 59C536 58 577 67 618.2 69C659.3 71 700.7 66 741.8 66.3C783 66.7 824 72.3 865.2 73.3C906.3 74.3 947.7 70.7 989 67.2C1030.3 63.7 1071.7 60.3 1112.8 57.8C1154 55.3 1195 53.7 1236.2 52.8C1277.3 52 1318.7 52 1339.3 52L1360 52L1360 44L1339.3 43.5C1318.7 43 1277.3 42 1236.2 42.5C1195 43 1154 45 1112.8 46.8C1071.7 48.7 1030.3 50.3 989 52.8C947.7 55.3 906.3 58.7 865.2 58.7C824 58.7 783 55.3 741.8 55.8C700.7 56.3 659.3 60.7 618.2 58.8C577 57 536 49 494.8 50C453.7 51 412.3 61 371 62C329.7 63 288.3 55 247.2 54.8C206 54.7 165 62.3 123.8 62.7C82.7 63 41.3 56 20.7 52.5L0 49Z" fill="#0083f2"></path><path d="M0 78L20.7 81.5C41.3 85 82.7 92 123.8 91.7C165 91.3 206 83.7 247.2 82.8C288.3 82 329.7 88 371 86.3C412.3 84.7 453.7 75.3 494.8 74C536 72.7 577 79.3 618.2 82C659.3 84.7 700.7 83.3 741.8 84.5C783 85.7 824 89.3 865.2 88.3C906.3 87.3 947.7 81.7 989 78.3C1030.3 75 1071.7 74 1112.8 72.8C1154 71.7 1195 70.3 1236.2 70.7C1277.3 71 1318.7 73 1339.3 74L1360 75L1360 50L1339.3 50C1318.7 50 1277.3 50 1236.2 50.8C1195 51.7 1154 53.3 1112.8 55.8C1071.7 58.3 1030.3 61.7 989 65.2C947.7 68.7 906.3 72.3 865.2 71.3C824 70.3 783 64.7 741.8 64.3C700.7 64 659.3 69 618.2 67C577 65 536 56 494.8 57C453.7 58 412.3 69 371 70.5C329.7 72 288.3 64 247.2 64.3C206 64.7 165 73.3 123.8 74.3C82.7 75.3 41.3 68.7 20.7 65.3L0 62Z" fill="#00a1f5"></path><path d="M0 86L20.7 89.8C41.3 93.7 82.7 101.3 123.8 102.2C165 103 206 97 247.2 96C288.3 95 329.7 99 371 97.8C412.3 96.7 453.7 90.3 494.8 90.3C536 90.3 577 96.7 618.2 97.7C659.3 98.7 700.7 94.3 741.8 94.2C783 94 824 98 865.2 97.2C906.3 96.3 947.7 90.7 989 89.2C1030.3 87.7 1071.7 90.3 1112.8 90.2C1154 90 1195 87 1236.2 86.2C1277.3 85.3 1318.7 86.7 1339.3 87.3L1360 88L1360 73L1339.3 72C1318.7 71 1277.3 69 1236.2 68.7C1195 68.3 1154 69.7 1112.8 70.8C1071.7 72 1030.3 73 989 76.3C947.7 79.7 906.3 85.3 865.2 86.3C824 87.3 783 83.7 741.8 82.5C700.7 81.3 659.3 82.7 618.2 80C577 77.3 536 70.7 494.8 72C453.7 73.3 412.3 82.7 371 84.3C329.7 86 288.3 80 247.2 80.8C206 81.7 165 89.3 123.8 89.7C82.7 90 41.3 83 20.7 79.5L0 76Z" fill="#43bcf2"></path><path d="M0 130L20.7 130C41.3 130 82.7 130 123.8 129.3C165 128.7 206 127.3 247.2 126.7C288.3 126 329.7 126 371 126.5C412.3 127 453.7 128 494.8 127.7C536 127.3 577 125.7 618.2 124.8C659.3 124 700.7 124 741.8 124.8C783 125.7 824 127.3 865.2 127.3C906.3 127.3 947.7 125.7 989 125.7C1030.3 125.7 1071.7 127.3 1112.8 127.3C1154 127.3 1195 125.7 1236.2 125.3C1277.3 125 1318.7 126 1339.3 126.5L1360 127L1360 86L1339.3 85.3C1318.7 84.7 1277.3 83.3 1236.2 84.2C1195 85 1154 88 1112.8 88.2C1071.7 88.3 1030.3 85.7 989 87.2C947.7 88.7 906.3 94.3 865.2 95.2C824 96 783 92 741.8 92.2C700.7 92.3 659.3 96.7 618.2 95.7C577 94.7 536 88.3 494.8 88.3C453.7 88.3 412.3 94.7 371 95.8C329.7 97 288.3 93 247.2 94C206 95 165 101 123.8 100.2C82.7 99.3 41.3 91.7 20.7 87.8L0 84Z" fill="#87d5f0"></path><path d="M0 142L20.7 141.5C41.3 141 82.7 140 123.8 139.3C165 138.7 206 138.3 247.2 138.8C288.3 139.3 329.7 140.7 371 140.3C412.3 140 453.7 138 494.8 137.8C536 137.7 577 139.3 618.2 139.3C659.3 139.3 700.7 137.7 741.8 137.3C783 137 824 138 865.2 138.3C906.3 138.7 947.7 138.3 989 137.8C1030.3 137.3 1071.7 136.7 1112.8 137.2C1154 137.7 1195 139.3 1236.2 140.2C1277.3 141 1318.7 141 1339.3 141L1360 141L1360 125L1339.3 124.5C1318.7 124 1277.3 123 1236.2 123.3C1195 123.7 1154 125.3 1112.8 125.3C1071.7 125.3 1030.3 123.7 989 123.7C947.7 123.7 906.3 125.3 865.2 125.3C824 125.3 783 123.7 741.8 122.8C700.7 122 659.3 122 618.2 122.8C577 123.7 536 125.3 494.8 125.7C453.7 126 412.3 125 371 124.5C329.7 124 288.3 124 247.2 124.7C206 125.3 165 126.7 123.8 127.3C82.7 128 41.3 128 20.7 128L0 128Z" fill="#c2ebf3"></path><path d="M0 151L20.7 151C41.3 151 82.7 151 123.8 151C165 151 206 151 247.2 151C288.3 151 329.7 151 371 151C412.3 151 453.7 151 494.8 151C536 151 577 151 618.2 151C659.3 151 700.7 151 741.8 151C783 151 824 151 865.2 151C906.3 151 947.7 151 989 151C1030.3 151 1071.7 151 1112.8 151C1154 151 1195 151 1236.2 151C1277.3 151 1318.7 151 1339.3 151L1360 151L1360 139L1339.3 139C1318.7 139 1277.3 139 1236.2 138.2C1195 137.3 1154 135.7 1112.8 135.2C1071.7 134.7 1030.3 135.3 989 135.8C947.7 136.3 906.3 136.7 865.2 136.3C824 136 783 135 741.8 135.3C700.7 135.7 659.3 137.3 618.2 137.3C577 137.3 536 135.7 494.8 135.8C453.7 136 412.3 138 371 138.3C329.7 138.7 288.3 137.3 247.2 136.8C206 136.3 165 136.7 123.8 137.3C82.7 138 41.3 139 20.7 139.5L0 140Z" fill="#fcffff"></path></svg>